<svg xmlns="http://www.w3.org/2000/svg" width="48.425" height="51" viewBox="0 0 48.425 51">
  <path id="np_clothes_1518575_000000" d="M45.7,18.114a2.386,2.386,0,0,0-1.693-.677h-4.29c-3.1-1.186-6.15-2.427-7.166-2.822V11.682h-.564a2.427,2.427,0,1,1,2.427-2.427h1.129a3.556,3.556,0,1,0-4.12,3.5v1.863c-1.016.395-4.12,1.636-7.224,2.822H19.8a2.444,2.444,0,0,0-1.693.734L8.4,27.765l7.279,7.279,3.1-3.1V55.7H45.022l0-23.759,3.1,3.1,7.279-7.279ZM31.933,15.632c.846.339,4.063,1.581,7.394,2.879-.564,3.611-3.725,5.925-7.506,5.925s-6.942-2.315-7.506-5.813c3.329-1.3,6.714-2.654,7.618-2.991Z" transform="translate(-7.689 -5.199)" fill="#d9c3fc" stroke="#d9c3fc" stroke-width="1"/>
</svg>
