<svg xmlns="http://www.w3.org/2000/svg" width="53.576" height="50" viewBox="0 0 53.576 50">
  <g id="np_certificate_1556210_000000" transform="translate(-12.5 -23.75)">
    <path id="パス_56" data-name="パス 56" d="M64.29,23.75h-50A1.788,1.788,0,0,0,12.5,25.536V60.36a1.782,1.782,0,0,0,1.786,1.786H41.967v9.822a1.786,1.786,0,0,0,2.776,1.482l4.367-2.91,4.367,2.91a1.786,1.786,0,0,0,2.776-1.482V62.146H64.29a1.782,1.782,0,0,0,1.786-1.786V25.536A1.782,1.782,0,0,0,64.29,23.75Zm-10.8,33.039a1.782,1.782,0,0,0-.812,1.526V68.629L50.1,66.9v0a1.779,1.779,0,0,0-1.981,0l-2.581,1.722V58.315a1.782,1.782,0,0,0-.812-1.526,8.037,8.037,0,1,1,8.759,0Zm9.01,1.786H57.013a11.608,11.608,0,1,0-15.8,0H16.072V27.322H62.5Z" fill="#d9c3fc"/>
    <path id="パス_57" data-name="パス 57" d="M23.036,37.322H40.895a1.786,1.786,0,1,0,0-3.572H23.036a1.786,1.786,0,1,0,0,3.572Z" transform="translate(-2.499 -2.857)" fill="#d9c3fc"/>
    <path id="パス_58" data-name="パス 58" d="M23.036,48.572H34.644a1.786,1.786,0,1,0,0-3.572H23.036a1.786,1.786,0,0,0,0,3.572Z" transform="translate(-2.499 -6.07)" fill="#d9c3fc"/>
    <path id="パス_59" data-name="パス 59" d="M23.036,56.072H34.644a1.786,1.786,0,1,0,0-3.572H23.036a1.786,1.786,0,1,0,0,3.572Z" transform="translate(-2.499 -8.213)" fill="#d9c3fc"/>
    <path id="パス_60" data-name="パス 60" d="M23.036,63.572H34.644a1.786,1.786,0,1,0,0-3.572H23.036a1.786,1.786,0,0,0,0,3.572Z" transform="translate(-2.499 -10.355)" fill="#d9c3fc"/>
    <path id="パス_61" data-name="パス 61" d="M66,56.287a.895.895,0,0,1-.823-1.125.894.894,0,0,0-1.312-.957.89.89,0,0,1-1.331-.427.891.891,0,0,0-1.624,0,.9.9,0,0,1-.564.536.89.89,0,0,1-.767-.109.9.9,0,0,0-1.314.957.89.89,0,0,1-.8,1.125.894.894,0,0,0-.5,1.546.885.885,0,0,1,.335.695.9.9,0,0,1-.335.7.892.892,0,0,0,.5,1.526.895.895,0,0,1,.823,1.125.894.894,0,0,0,1.312.957.89.89,0,0,1,1.331.427.891.891,0,0,0,1.624,0,.9.9,0,0,1,.564-.536.89.89,0,0,1,.767.109.9.9,0,0,0,1.314-.957.89.89,0,0,1,.8-1.125.894.894,0,0,0,.5-1.546.885.885,0,0,1-.335-.695.9.9,0,0,1,.335-.7.892.892,0,0,0-.5-1.526Z" transform="translate(-12.618 -8.428)" fill="#d9c3fc"/>
  </g>
</svg>
