<svg xmlns="http://www.w3.org/2000/svg" width="50.023" height="50.028" viewBox="0 0 50.023 50.028">
  <path id="np_language_2367916_000000" d="M34.393,9.375A25.014,25.014,0,1,0,59.4,34.389,25.045,25.045,0,0,0,34.393,9.375Zm0,3.848a21.134,21.134,0,0,1,4.984.613,12.866,12.866,0,0,1-1.448.327,21.51,21.51,0,0,1-3.24.255,21.658,21.658,0,0,0-2.345-.041A11.632,11.632,0,0,0,30.3,14.6a3.383,3.383,0,0,0-2.213,1.181c-1.133,1.359-1.65,2.441-2.073,2.713a2.443,2.443,0,0,1-1.337.313,10.694,10.694,0,0,0-3.355.782,10.6,10.6,0,0,1-1.977-.094,21.075,21.075,0,0,1,15.049-6.275Zm9.948,2.48c.382.2.748.433,1.116.657l-3.081,3.071a1.94,1.94,0,0,0-.512.909l-.854,3.593c-.673.048-1.025.041-2.145.185a24.258,24.258,0,0,0-2.826.5,4.5,4.5,0,0,0-2.513,1.231,24.4,24.4,0,0,0-3.04,3.382c-1.087,1.352-2.016,2.586-2.016,2.586a1.928,1.928,0,0,0-.2,2.016l2.3,4.676.808,5.965a1.924,1.924,0,0,0,2.145,1.664l2.8-.342v1.636a1.94,1.94,0,0,0,.368,1.121L39.8,52.844a1.923,1.923,0,0,0,2.968.168l6.55-7.091a1.914,1.914,0,0,0,.455-.878l.568-2.53,3.579-4.077a1.926,1.926,0,0,0,.373-1.931l-1.535-4.216c.457-.474,1.306-1.371,2.34-2.273A21.172,21.172,0,0,1,34.393,55.552a21.09,21.09,0,0,1-11.961-3.694c0-.827.067-1.217.055-1.248a5.9,5.9,0,0,0,3.182-2.658,1.924,1.924,0,0,0,.041-1.535s-.284-.707-.568-1.518c-.142-.4-.289-.844-.382-1.181s-.113-.673-.113-.426a3.238,3.238,0,0,0-.455-1.676,12.193,12.193,0,0,0-.681-1.219c-.467-.75-.924-1.378-.924-1.378a1.925,1.925,0,0,0-1.181-.741,9.142,9.142,0,0,1-1.4-.44,1.444,1.444,0,0,1-.3-.154,27.153,27.153,0,0,0,.368-4.221,1.889,1.889,0,0,0-.159-.666,13.728,13.728,0,0,0-1.191-2.218A4.048,4.048,0,0,0,17.1,29a2.569,2.569,0,0,0-1.917-.185,2.722,2.722,0,0,0-1.477,1.253c-.012.019-.051.072-.065.094a21.042,21.042,0,0,1,2.975-7.271c.4.1.856.212,1.4.315a8.736,8.736,0,0,0,4.515.031,14.329,14.329,0,0,1,2.487-.6,6.422,6.422,0,0,0,3.055-.895,9.311,9.311,0,0,0,2.826-3.3.57.57,0,0,1,.212-.082,8.472,8.472,0,0,1,1.364-.142c1.025-.036,1.989.026,1.989.026l.055.014h.06a24.889,24.889,0,0,0,3.93-.3,11.294,11.294,0,0,0,5.818-2.266Zm4.224,2.98a21.153,21.153,0,0,1,5.3,7.4,39.843,39.843,0,0,0-4.789,4.37,1.923,1.923,0,0,0-.382,1.963l1.59,4.329-3.153,3.6a1.9,1.9,0,0,0-.428.849l-.568,2.5-4.6,4.988-1.364-1.89-.014-3.194A1.925,1.925,0,0,0,38,41.7l-3.071.37-.582-4.389a1.849,1.849,0,0,0-.185-.582l-1.9-3.894c.358-.464.58-.746,1.236-1.563,1.049-1.3,2.485-2.881,2.554-2.937a2.069,2.069,0,0,0,.2-.185c-.358.382.075-.007.722-.168a22.182,22.182,0,0,1,2.376-.414c1.7-.216,3.3-.3,3.3-.3A1.925,1.925,0,0,0,44.42,26.18l1.063-4.418ZM15.955,33.495c.1.19.19.363.241.469a17.5,17.5,0,0,1-.241,3.348,3.175,3.175,0,0,0,.767,2.927,5.127,5.127,0,0,0,1.749,1.135,6.074,6.074,0,0,0,1.349.414c.147.209.212.3.426.64.188.3.378.628.486.854s.072.445.072.014a4.593,4.593,0,0,0,.255,1.477c.13.464.3.938.455,1.39.123.349.137.38.241.654-.091.1-.214.226-.214.226a3.843,3.843,0,0,0-2.533,1.864,21.029,21.029,0,0,1-5.631-12.079c.31-.366.51-.589,1.1-1.318.527-.649.976-1.328,1.477-2.013Z" transform="translate(-9.379 -9.375)" fill="#d9c3fc"/>
</svg>
