<svg xmlns="http://www.w3.org/2000/svg" width="51.426" height="51" viewBox="0 0 51.426 51">
  <g id="np_pc_1932675_000000" transform="translate(-2.5 -2.5)">
    <path id="パス_88" data-name="パス 88" d="M53.426,42.362V10.979H26.4V3H3V53H26.4V50.872H47.043V48.745H39.914a10.316,10.316,0,0,1-2.022-6.383ZM51.3,40.234H15.34V13.106H51.35V40.234ZM26.4,42.362h2.34a11.354,11.354,0,0,1-2.022,6.383H26.4ZM5.128,50.872V5.128H24.277v5.851H13.212V26.936H6.723v2.128h6.489v3.191H6.723v2.128h6.489v3.191H6.723V39.7h6.489v2.66H24.277v8.511Zm32.235-2.128H29.224a14.549,14.549,0,0,0,1.65-6.383h4.893a13.481,13.481,0,0,0,1.6,6.383Z" fill="#d5c5f8" stroke="#d5c5f8" stroke-width="1"/>
    <path id="パス_89" data-name="パス 89" d="M61.915,25.3H30v23.51H61.915ZM59.787,46.63H32.128v-19.2h27.66Z" transform="translate(-12.638 -10.439)" fill="#d5c5f8" stroke="#d5c5f8" stroke-width="1"/>
    <path id="パス_90" data-name="パス 90" d="M10,84H25.957v2.128H10Z" transform="translate(-3.277 -37.915)" fill="#d5c5f8" stroke="#d5c5f8" stroke-width="1"/>
    <path id="パス_91" data-name="パス 91" d="M11.548,23.2a1.65,1.65,0,1,0-1.65-1.65,1.658,1.658,0,0,0,1.65,1.65Z" transform="translate(-3.229 -7.91)" fill="#d5c5f8" stroke="#d5c5f8" stroke-width="1"/>
    <path id="パス_92" data-name="パス 92" d="M11.548,33.2a1.65,1.65,0,1,0-1.65-1.65,1.658,1.658,0,0,0,1.65,1.65Z" transform="translate(-3.229 -12.591)" fill="#d5c5f8" stroke="#d5c5f8" stroke-width="1"/>
  </g>
</svg>
