<svg xmlns="http://www.w3.org/2000/svg" width="50.056" height="50" viewBox="0 0 50.056 50">
  <path id="np_fitness_466088_000000" d="M47.1,8.28a4.5,4.5,0,0,0-3.281,1.39l-.445.445L39.7,6.444A4.8,4.8,0,0,0,36.257,5a4.881,4.881,0,0,0-3.448,1.39,4.462,4.462,0,0,0-1,1.5,4.906,4.906,0,0,0-6.785.057,4.652,4.652,0,0,0-1.39,3.448,4.881,4.881,0,0,0,1.39,3.448l6.842,6.842L21.629,31.864l-.613-.613-6.172-6.229a4.652,4.652,0,0,0-3.448-1.39,4.881,4.881,0,0,0-3.448,1.39,4.906,4.906,0,0,0-.057,6.785,4.429,4.429,0,0,0-1.5,1,4.97,4.97,0,0,0,0,6.9l3.672,3.672-.445.445A4.733,4.733,0,0,0,8.226,47.1a4.5,4.5,0,0,0,1.39,3.281,4.733,4.733,0,0,0,3.281,1.39,4.5,4.5,0,0,0,3.281-1.39l.445-.445,3.672,3.672A4.753,4.753,0,0,0,23.689,55a4.881,4.881,0,0,0,3.448-1.39,4.462,4.462,0,0,0,1-1.5,4.906,4.906,0,0,0,6.785-.057,4.787,4.787,0,0,0,1.39-3.448,4.881,4.881,0,0,0-1.39-3.448L28.8,39.038l-.556-.556L38.481,28.249l.556.556,6.175,6.229a4.787,4.787,0,0,0,3.448,1.39,4.881,4.881,0,0,0,3.448-1.39,4.906,4.906,0,0,0,.057-6.785,4.43,4.43,0,0,0,1.5-1,4.9,4.9,0,0,0,0-6.841L49.94,16.68l.445-.445a4.733,4.733,0,0,0,1.39-3.281,4.5,4.5,0,0,0-1.39-3.281A4.418,4.418,0,0,0,47.1,8.281ZM14.511,47.769l-.445.445a1.506,1.506,0,0,1-1.112.445,1.77,1.77,0,0,1-1.112-.445A1.426,1.426,0,0,1,11.4,47.1a1.77,1.77,0,0,1,.445-1.112l.445-.445Zm10.511,1.225a1.73,1.73,0,0,1-2.446,2.446L8.614,37.479a1.73,1.73,0,0,1,2.446-2.446ZM18.847,33.476,32.808,47.437a1.73,1.73,0,0,1-2.446,2.446L13.286,32.809,10.17,29.694a1.73,1.73,0,0,1,2.446-2.446Zm17.409-7.452L26.024,36.257l-2.168-2.168L34.088,23.856ZM32.808,13.286,49.882,30.361a1.73,1.73,0,0,1-2.446,2.446L41.208,26.58l-7.732-7.732L27.247,12.62a1.73,1.73,0,0,1,2.446-2.446Zm9.455.113,9.177,9.177a1.73,1.73,0,0,1-2.446,2.446L35.033,11.061a1.73,1.73,0,0,1,2.446-2.446Zm6.4-.445a1.77,1.77,0,0,1-.445,1.112l-.445.445L45.6,12.343l.445-.445a1.506,1.506,0,0,1,1.112-.445,1.77,1.77,0,0,1,1.112.445,1.754,1.754,0,0,1,.389,1.056Z" transform="translate(-5 -5)" fill="#d9c3fc"/>
</svg>
