<svg xmlns="http://www.w3.org/2000/svg" width="50.097" height="51" viewBox="0 0 50.097 51">
  <g id="np_beauty_3022339_000000" transform="translate(-2.129 -1.257)">
    <path id="パス_76" data-name="パス 76" d="M50.928,37.373a.708.708,0,1,0-.87-1.117L45.8,39.578a.708.708,0,1,0,.87,1.117Z" transform="translate(-20.666 -16.549)" fill="#d9c3fc" stroke="#d9c3fc" stroke-width="1"/>
    <path id="パス_77" data-name="パス 77" d="M55.869,39.329a.709.709,0,0,0-1.144-.559l-7.3,5.686a.708.708,0,1,0,.87,1.117l7.3-5.686a.7.7,0,0,0,.273-.559Z" transform="translate(-21.449 -17.76)" fill="#d9c3fc" stroke="#d9c3fc" stroke-width="1"/>
    <path id="パス_78" data-name="パス 78" d="M51.018,45.865H41.785A19.891,19.891,0,1,0,13.67,18.719a2.1,2.1,0,0,0-.619-.518l0-14.943a1.5,1.5,0,0,0-1.5-1.5H9.421a3.632,3.632,0,0,0-3.628,3.63V18.2a2.077,2.077,0,0,0-1.087,1.822V23.15a2.779,2.779,0,0,0-2.077,2.688V48.98A2.78,2.78,0,0,0,5.4,51.757h43.38a2.947,2.947,0,0,0,2.941-2.945V46.573a.709.709,0,0,0-.709-.709ZM7.21,5.387A2.214,2.214,0,0,1,9.421,3.175h2.126a.087.087,0,0,1,.085.083v14.69H7.21ZM6.125,20.021a.656.656,0,0,1,.518-.642,1,1,0,0,1,.136-.014H12.07a.656.656,0,0,1,.644.656v3.043H6.125Zm8.668,26.552V48.98a1.362,1.362,0,0,1-1.36,1.36H5.4a1.36,1.36,0,0,1-1.358-1.36V25.839A1.36,1.36,0,0,1,5.4,24.48h8.03a1.363,1.363,0,0,1,1.231.783c.014.032.028.065.04.1,0,.014.01.026.014.04a.9.9,0,0,1,.03.105c0,.012.006.024.01.036.008.036.014.075.02.113l.006.034c0,.045.008.089.008.134v16Zm.174-23.047-.024-.016a1.792,1.792,0,0,0-.17-.1l-.012-.006q-.088-.049-.182-.091c-.012,0-.022-.01-.032-.014-.061-.026-.123-.051-.186-.073a.152.152,0,0,0-.032-.01c-.065-.022-.13-.043-.2-.061h0V20.7a18.469,18.469,0,1,1,24.98,25.168H32.872A16.445,16.445,0,0,0,30.293,13.18a16.286,16.286,0,0,0-9.822,3.263,16.632,16.632,0,0,0-5.452,7.123.278.278,0,0,0-.053-.04Zm1.243,18.04V38.089a16.507,16.507,0,0,0,11.518,7.775H21.486a18.445,18.445,0,0,1-5.275-4.3Zm2.6,4.3h-2.6v-2.2A19.978,19.978,0,0,0,18.812,45.864Zm-2.6-11.036V25.84c0-.073,0-.148-.01-.219,0-.01,0-.022,0-.032-.006-.069-.016-.138-.026-.206l-.006-.034c-.012-.069-.026-.138-.045-.206,0,0,0,0,0-.006-.018-.067-.038-.134-.061-.2,0-.008-.006-.018-.01-.028s0-.008,0-.012a15.022,15.022,0,1,1,.166,9.931Zm34.1,13.982a1.527,1.527,0,0,1-1.524,1.528l-32.931,0a.1.1,0,0,0,.006-.014,2.9,2.9,0,0,0,.14-.287A.3.3,0,0,0,16.014,50c.014-.036.028-.075.043-.113.006-.014.01-.03.016-.045a1.24,1.24,0,0,0,.036-.123c0-.01.006-.022.01-.032q.021-.079.036-.158l.006-.032c.008-.043.016-.085.02-.13l.006-.051c0-.038.008-.079.012-.119,0-.016,0-.032,0-.049,0-.055.006-.111.006-.166v-1.7h34.1Z" fill="#d9c3fc" stroke="#d9c3fc" stroke-width="1"/>
  </g>
</svg>
