<svg xmlns="http://www.w3.org/2000/svg" width="50.008" height="50" viewBox="0 0 50.008 50">
  <g id="np_therapy_3388972_000000" transform="translate(-1.551 -1.563)">
    <path id="パス_105" data-name="パス 105" d="M87.578,6.876a3.6,3.6,0,0,0-1.694-2.21L81.691,2.247a3.631,3.631,0,0,0-3.629,6.29l4.194,2.419a3.573,3.573,0,0,0,1.806.484,3.712,3.712,0,0,0,.944-.1,3.629,3.629,0,0,0,2.573-4.444Z" transform="translate(-36.142 -0.095)" fill="#d9c3fc"/>
    <path id="パス_106" data-name="パス 106" d="M3.454,69.654c-.1-.234-.177-.468-.266-.7C3.276,69.211,3.357,69.445,3.454,69.654Z" transform="translate(-0.792 -32.607)" fill="#d9c3fc"/>
    <path id="パス_107" data-name="パス 107" d="M2.6,67.025c-.081-.266-.145-.54-.21-.806C2.455,66.485,2.52,66.759,2.6,67.025Z" transform="translate(-0.406 -31.285)" fill="#d9c3fc"/>
    <path id="パス_108" data-name="パス 108" d="M8.872,78.819c-.056-.065-.121-.129-.169-.194C8.751,78.69,8.816,78.754,8.872,78.819Z" transform="translate(-3.461 -37.288)" fill="#d9c3fc"/>
    <path id="パス_109" data-name="パス 109" d="M95.486,71.625c-.1.21-.194.411-.3.613C95.293,72.036,95.389,71.835,95.486,71.625Z" transform="translate(-45.308 -33.901)" fill="#d9c3fc"/>
    <path id="パス_110" data-name="パス 110" d="M1.989,64.186c-.065-.315-.1-.637-.145-.952C1.884,63.557,1.924,63.871,1.989,64.186Z" transform="translate(-0.142 -29.84)" fill="#d9c3fc"/>
    <path id="パス_111" data-name="パス 111" d="M4.533,72.237c-.1-.2-.2-.4-.3-.613A6.082,6.082,0,0,1,4.533,72.237Z" transform="translate(-1.299 -33.9)" fill="#d9c3fc"/>
    <path id="パス_112" data-name="パス 112" d="M5.822,74.625c-.1-.169-.21-.339-.306-.516C5.612,74.286,5.717,74.456,5.822,74.625Z" transform="translate(-1.919 -35.102)" fill="#d9c3fc"/>
    <path id="パス_113" data-name="パス 113" d="M92.728,76.453l-.29.379Z" transform="translate(-43.977 -36.237)" fill="#d9c3fc"/>
    <path id="パス_114" data-name="パス 114" d="M94.2,74.109c-.1.177-.2.347-.306.516C94,74.456,94.1,74.286,94.2,74.109Z" transform="translate(-44.68 -35.102)" fill="#d9c3fc"/>
    <path id="パス_115" data-name="パス 115" d="M98.02,63.234a4.855,4.855,0,0,1-.145.952c.065-.315.1-.629.145-.952Z" transform="translate(-46.608 -29.84)" fill="#d9c3fc"/>
    <path id="パス_116" data-name="パス 116" d="M98.37,59.375a10.219,10.219,0,0,1-.073,1.492A10.219,10.219,0,0,0,98.37,59.375Z" transform="translate(-46.813 -27.973)" fill="#d9c3fc"/>
    <path id="パス_117" data-name="パス 117" d="M97.412,66.219c-.065.266-.129.54-.21.806C97.283,66.759,97.348,66.485,97.412,66.219Z" transform="translate(-46.283 -31.285)" fill="#d9c3fc"/>
    <path id="パス_118" data-name="パス 118" d="M7.29,76.833,7,76.454Z" transform="translate(-2.637 -36.237)" fill="#d9c3fc"/>
    <path id="パス_119" data-name="パス 119" d="M1.635,60.867a10.218,10.218,0,0,1-.073-1.492A10.217,10.217,0,0,0,1.635,60.867Z" transform="translate(-0.006 -27.973)" fill="#d9c3fc"/>
    <path id="パス_120" data-name="パス 120" d="M91.138,78.625c-.048.065-.113.129-.169.194C91.025,78.754,91.09,78.69,91.138,78.625Z" transform="translate(-43.267 -37.288)" fill="#d9c3fc"/>
    <path id="パス_121" data-name="パス 121" d="M96.626,69c-.089.234-.169.468-.266.7A3.565,3.565,0,0,1,96.626,69Z" transform="translate(-45.875 -32.63)" fill="#d9c3fc"/>
    <path id="パス_122" data-name="パス 122" d="M70.024,88.938c-.419,0-.806.065-1.274.065A8.328,8.328,0,0,0,70.024,88.938Z" transform="translate(-32.516 -42.278)" fill="#d9c3fc"/>
    <path id="パス_123" data-name="パス 123" d="M30.055,89a8.38,8.38,0,0,1-1.274-.065A8.327,8.327,0,0,0,30.055,89Z" transform="translate(-13.176 -42.277)" fill="#d9c3fc"/>
    <path id="パス_124" data-name="パス 124" d="M28.982,92.007a17.346,17.346,0,0,1-2.419-.194v1a2.419,2.419,0,0,0,2.419,2.419H48.337a2.419,2.419,0,0,0,2.419-2.419v-1a17.346,17.346,0,0,1-2.419.194Z" transform="translate(-12.102 -43.669)" fill="#d9c3fc"/>
    <path id="パス_125" data-name="パス 125" d="M98.229,62.266a3.56,3.56,0,0,1-.073.5C98.181,62.6,98.213,62.435,98.229,62.266Z" transform="translate(-46.744 -29.372)" fill="#d9c3fc"/>
    <path id="パス_126" data-name="パス 126" d="M97.014,67.781c-.065.21-.129.419-.2.629C96.885,68.2,96.958,67.991,97.014,67.781Z" transform="translate(-46.094 -32.041)" fill="#d9c3fc"/>
    <path id="パス_127" data-name="パス 127" d="M93.46,75.109c-.153.234-.3.468-.46.694C93.162,75.577,93.307,75.343,93.46,75.109Z" transform="translate(-44.25 -35.586)" fill="#d9c3fc"/>
    <path id="パス_128" data-name="パス 128" d="M91.886,77.188c-.185.25-.379.508-.589.742C91.507,77.672,91.7,77.438,91.886,77.188Z" transform="translate(-43.426 -36.592)" fill="#d9c3fc"/>
    <path id="パス_129" data-name="パス 129" d="M96.04,70.312c-.081.226-.177.435-.274.653A4.552,4.552,0,0,0,96.04,70.312Z" transform="translate(-45.588 -33.265)" fill="#d9c3fc"/>
    <path id="パス_130" data-name="パス 130" d="M94.848,72.812c-.113.226-.234.452-.363.669C94.614,73.264,94.735,73.038,94.848,72.812Z" transform="translate(-44.968 -34.475)" fill="#d9c3fc"/>
    <path id="パス_131" data-name="パス 131" d="M97.746,65.078a2.7,2.7,0,0,1-.137.589C97.658,65.465,97.706,65.272,97.746,65.078Z" transform="translate(-46.48 -30.733)" fill="#d9c3fc"/>
    <path id="パス_132" data-name="パス 132" d="M2.262,65.667c-.048-.2-.1-.4-.137-.589C2.165,65.272,2.214,65.465,2.262,65.667Z" transform="translate(-0.278 -30.733)" fill="#d9c3fc"/>
    <path id="パス_133" data-name="パス 133" d="M1.776,62.765c0-.169-.056-.331-.073-.5C1.719,62.435,1.752,62.6,1.776,62.765Z" transform="translate(-0.074 -29.372)" fill="#d9c3fc"/>
    <path id="パス_134" data-name="パス 134" d="M9.031,79a15.323,15.323,0,0,0,10.194,5.129c-.387-.04-.806-.089-1.145-.145A15.324,15.324,0,0,1,9.031,79Z" transform="translate(-3.62 -37.469)" fill="#d9c3fc"/>
    <path id="パス_135" data-name="パス 135" d="M72.364,83.984c-.379.056-.758.1-1.145.145A15.323,15.323,0,0,0,81.413,79a15.324,15.324,0,0,1-9.048,4.984Z" transform="translate(-33.71 -37.469)" fill="#d9c3fc"/>
    <path id="パス_136" data-name="パス 136" d="M3.977,71.013c-.1-.218-.194-.427-.274-.653C3.784,70.585,3.881,70.795,3.977,71.013Z" transform="translate(-1.042 -33.288)" fill="#d9c3fc"/>
    <path id="パス_137" data-name="パス 137" d="M5.175,73.481c-.129-.218-.25-.444-.363-.669C4.925,73.038,5.046,73.264,5.175,73.481Z" transform="translate(-1.578 -34.475)" fill="#d9c3fc"/>
    <path id="パス_138" data-name="パス 138" d="M2.936,68.41c-.073-.21-.137-.419-.2-.629A1.736,1.736,0,0,1,2.936,68.41Z" transform="translate(-0.573 -32.041)" fill="#d9c3fc"/>
    <path id="パス_139" data-name="パス 139" d="M8.151,77.929c-.21-.234-.4-.492-.589-.742C7.748,77.438,7.942,77.671,8.151,77.929Z" transform="translate(-2.909 -36.592)" fill="#d9c3fc"/>
    <path id="パス_140" data-name="パス 140" d="M6.569,75.8c-.161-.226-.306-.46-.46-.694C6.263,75.343,6.408,75.577,6.569,75.8Z" transform="translate(-2.206 -35.586)" fill="#d9c3fc"/>
    <path id="パス_141" data-name="パス 141" d="M50.757,85.938H26.563v1.4c.379.056.758.1,1.145.145a12.215,12.215,0,0,0,1.274.065H48.337a8.38,8.38,0,0,0,1.274-.065c.419-.065.806-.089,1.145-.145Z" transform="translate(-12.103 -40.826)" fill="#d9c3fc"/>
    <path id="パス_142" data-name="パス 142" d="M28.977,27.369H51.557V23.337a.805.805,0,0,0-.806-.806H41.485L46.8,12.853a5.586,5.586,0,0,1-1.492-.573L41.114,9.861a5.294,5.294,0,0,1-1.25-1.04L31.549,22.53H16.283a25.514,25.514,0,0,1,3.331-7.444.758.758,0,0,0,.371.177,8.051,8.051,0,0,0,1.226.089,11.916,11.916,0,0,0,6.645-2.032,5.978,5.978,0,0,0,2.516-3.968c.6-3.863,2.855-4.9,2.944-4.936a.807.807,0,0,0,0-1.484C33.009,2.812,26.163,0,21.5,2.8c-2.3,1.387-3.629,3.863-3.944,7.379a.81.81,0,1,0,1.613.145c.266-2.968,1.339-5.04,3.169-6.145,2.806-1.694,6.823-.879,8.935-.25a8.72,8.72,0,0,0-2.484,5.177A4.384,4.384,0,0,1,26.9,12.046a10.2,10.2,0,0,1-6.339,1.677,14.6,14.6,0,0,1,5.5-4.944A.806.806,0,1,0,25.436,7.3c-4.121,1.766-7.952,7.371-9.815,12.1a9.032,9.032,0,0,0-.315-.9c.315-1.282,1.492-6.9-.726-10.307a5.64,5.64,0,0,0-4.032-2.524c-4.621-.766-5.863-3.492-5.911-3.6A.807.807,0,0,0,3.17,2.054c-.161.315-3.444,8.379-.177,13.766,1.613,2.661,4.484,4.2,8.565,4.565h.073a.807.807,0,0,0,.073-1.613c-3.532-.315-6-1.613-7.331-3.79-2.081-3.444-.984-8.411-.234-10.847a9.993,9.993,0,0,0,6.169,3.073,4.033,4.033,0,0,1,2.919,1.8c1.347,2.065,1.145,5.331.806,7.387a12.531,12.531,0,0,0-3.226-2.613A.806.806,0,0,0,10,15.167c3.516,2.089,4.339,4.137,4.46,7.363H2.363a.806.806,0,0,0-.806.806v4.032h12.9a.806.806,0,1,1,0,1.613H1.557V31.4a10.217,10.217,0,0,0,.073,1.492,3.559,3.559,0,0,0,.073.5c.04.315.081.637.145.952s.089.387.137.589.129.54.21.806.129.419.2.629.169.468.266.7.177.435.274.653.194.411.3.613.234.452.363.669.2.347.306.516.3.468.46.694l.29.379c.185.25.379.508.589.742.048.065.113.129.169.194a15.324,15.324,0,0,0,9.048,4.984v-1.4H38.653v1.4A15.324,15.324,0,0,0,47.7,41.53c.056-.065.121-.129.169-.194.21-.234.4-.492.589-.742l.29-.379c.161-.226.306-.46.46-.694s.21-.339.306-.516.25-.444.363-.669.2-.4.3-.613.194-.427.274-.653.177-.468.266-.7.137-.419.2-.629.145-.54.21-.806.1-.4.137-.589.1-.637.145-.952c0-.169.056-.331.073-.5a10.217,10.217,0,0,0,.073-1.492V28.982H28.976a.806.806,0,1,1,0-1.613Zm-5.645,1.613H20.105a.806.806,0,0,1,0-1.613h3.226a.806.806,0,0,1,0,1.613Z" transform="translate(0 0)" fill="#d9c3fc"/>
  </g>
</svg>
