<svg xmlns="http://www.w3.org/2000/svg" width="47.576" height="50" viewBox="0 0 47.576 50">
  <g id="np_lifestyle_2514128_000000" transform="translate(-3.126 -3.125)">
    <path id="パス_63" data-name="パス 63" d="M13.319,22.872a5.484,5.484,0,0,0,4.378-2.2h1.129a3.323,3.323,0,0,0,3.3-3.3,3.307,3.307,0,0,0-3.3-3.3H8.914a1.1,1.1,0,0,0-1.1,1.1v2.2a5.512,5.512,0,0,0,5.507,5.507Zm6.608-5.507a1.08,1.08,0,0,1-.336.785,1.063,1.063,0,0,1-.765.317h-.11a5.575,5.575,0,0,0,.11-1.1v-1.1a1.1,1.1,0,0,1,1.1,1.1Zm-9.911-1.1h6.608v1.1a3.3,3.3,0,0,1-6.608,0Z" transform="translate(-1.384 -3.228)" fill="#d9c3fc"/>
    <path id="パス_64" data-name="パス 64" d="M7.813,28.125H18.826v2.2H7.813Z" transform="translate(-1.384 -7.379)" fill="#d9c3fc"/>
    <path id="パス_65" data-name="パス 65" d="M17.969,9.733h2.2c0-.083,0-.094.229-.322a2.462,2.462,0,0,0,0-3.761c-.229-.229-.229-.24-.229-.325s0-.094.229-.322a2.486,2.486,0,0,0,.873-1.878h-2.2c0,.083,0,.094-.229.322a2.459,2.459,0,0,0,0,3.758c.229.229.229.24.229.325s0,.094-.229.322a2.5,2.5,0,0,0-.873,1.88Z" transform="translate(-4.382)" fill="#d9c3fc"/>
    <path id="パス_66" data-name="パス 66" d="M11.719,9.733h2.2c0-.083,0-.094.229-.322a2.462,2.462,0,0,0,0-3.761c-.229-.229-.229-.24-.229-.325s0-.094.229-.322a2.486,2.486,0,0,0,.873-1.878h-2.2c0,.083,0,.094-.229.322a2.459,2.459,0,0,0,0,3.758c.229.229.229.24.229.325s0,.094-.229.322a2.5,2.5,0,0,0-.873,1.88Z" transform="translate(-2.537)" fill="#d9c3fc"/>
    <path id="パス_67" data-name="パス 67" d="M62.038,19.663H85.165a1.1,1.1,0,0,0,.953-1.657L78.408,4.79a1.086,1.086,0,0,0-.988-.545,1.106,1.106,0,0,0-.95.608L73.992,9.809,70.716,3.725a1.148,1.148,0,0,0-1.941,0L61.065,18.041a1.1,1.1,0,0,0,.972,1.622Zm15.492-12,1.792,3.073-.983.983-1.492-.746a1.09,1.09,0,0,0-.493-.116h-.421Zm-1.434,5.4,1.971.986a1.106,1.106,0,0,0,1.272-.206L80.473,12.7l2.775,4.76H78.117l-2.373-4.405ZM69.747,6.569l2.533,4.7L71.2,10.911a1.093,1.093,0,0,0-.842.061l-1.333.666-1.11-1.666Zm-3.018,5.6,1,1.5a1.1,1.1,0,0,0,1.407.374l1.8-.9L73.8,14.1l1.812,3.359H63.882Z" transform="translate(-35.566 10.421)" fill="#d9c3fc"/>
    <path id="パス_68" data-name="パス 68" d="M76.182,76.181a13.868,13.868,0,0,0-4.3,10.187,3.231,3.231,0,0,0,3.119,3.119c.149.006.3.008.449.008A14.713,14.713,0,0,0,89.485,75a3.226,3.226,0,0,0-3.117-3.117,13.783,13.783,0,0,0-10.187,4.3Zm-1.09,11.107a1.041,1.041,0,0,1-1-1,9.254,9.254,0,0,1,.094-1.6l2.511,2.511a9.524,9.524,0,0,1-1.6.1Zm8.543-3.656a12.9,12.9,0,0,1-4.471,2.916L74.819,82.2A13.006,13.006,0,0,1,82.2,74.818l4.347,4.347a12.914,12.914,0,0,1-2.916,4.466Zm3.654-8.54a9.253,9.253,0,0,1-.094,1.6l-2.514-2.514a9.253,9.253,0,0,1,1.6-.094,1.037,1.037,0,0,1,1,1Z" transform="translate(-40.117 -36.37)" fill="#d9c3fc"/>
    <path id="パス_69" data-name="パス 69" d="M86.561,80.6,85,79.039l-.71.713-.713-.713L82.021,80.6l.713.713-1.426,1.423-.71-.713-1.558,1.558.713.71L79.039,85,80.6,86.561l.71-.713.713.713L83.579,85l-.713-.713,1.426-1.423.71.713,1.558-1.558-.713-.71Z" transform="translate(-42.231 -38.485)" fill="#d9c3fc"/>
    <path id="パス_70" data-name="パス 70" d="M4.507,89.216a10.556,10.556,0,0,1,7.671.895l.344.182a.934.934,0,0,0,.146.055.6.6,0,0,0,.091.033,1.022,1.022,0,0,0,.556,0c.03-.008.061-.022.091-.033a.934.934,0,0,0,.146-.055l.344-.182a10.567,10.567,0,0,1,7.671-.892,1.1,1.1,0,0,0,1.382-1.066V76.49a1.1,1.1,0,0,0-.82-1.065,12.756,12.756,0,0,0-9.091.994,12.759,12.759,0,0,0-9.091-.994,1.1,1.1,0,0,0-.82,1.065V88.15a1.1,1.1,0,0,0,1.382,1.066ZM20.746,77.371V86.8a12.758,12.758,0,0,0-6.608.771V78.321a10.593,10.593,0,0,1,6.608-.95Zm-15.418,0a10.555,10.555,0,0,1,6.608.953v9.251A12.761,12.761,0,0,0,7.2,86.663a12.954,12.954,0,0,0-1.872.138Z" transform="translate(-0.001 -38.396)" fill="#d9c3fc"/>
  </g>
</svg>
