<svg xmlns="http://www.w3.org/2000/svg" width="51.006" height="51.006" viewBox="0 0 51.006 51.006">
  <g id="np_palette_2505746_000000" transform="translate(-5.75 -7.306)">
    <path id="パス_93" data-name="パス 93" d="M30.886,27.312c-.082-.664-.155-1.345-.209-2.018-.318-3.5-.673-7.482-4.427-7.482a20,20,0,1,0,20,20c0-3.855-3.964-4.182-7.464-4.464-.718-.082-1.355-.082-2.027-.2a4.312,4.312,0,0,0,.055-3.018,12.4,12.4,0,0,0,4.036-1.818l.618-.409q.736-.491,1.491-1.055t1.527-1.2l.773-.636c1-.864,2.009-1.818,3.009-2.773A42.642,42.642,0,0,0,54.7,14.258c1.664-2.809,1.991-4.809.945-5.854C53.1,5.858,45.5,12.131,41.832,15.794a37.88,37.88,0,0,0-2.773,3.018l-.636.773A37.325,37.325,0,0,0,36.168,22.6l-.418.618a12.4,12.4,0,0,0-1.818,4.036,4.549,4.549,0,0,0-3.045.055Zm3.545,2.318a2.727,2.727,0,0,1,0,3.855c-.7.7-3.536,1.527-5.909,2.055.518-2.373,1.345-5.209,2.055-5.909a2.727,2.727,0,0,1,3.855,0ZM30.8,37.812a4.6,4.6,0,1,1-3.636-4.436c-.373,1.418-.618,2.727-.7,3.155l-.209,1.282,1.291-.236c.464-.082,1.736-.327,3.155-.7a4.473,4.473,0,0,1,.1.936Zm13.637,0A18.182,18.182,0,1,1,26.25,19.63c1.891,0,2.264,1.864,2.618,5.827.091.991.191,2,.345,2.973a9.559,9.559,0,0,0-1.536,3.191,6.464,6.464,0,1,0,4.754,4.754,9.455,9.455,0,0,0,3.218-1.555c.982.155,2,.255,2.991.327,3.973.336,5.791.7,5.791,2.664ZM38.978,21.83l.245-.318,3.364,3.364-.309.236-.782.582-.391.273-3.036-2.982.282-.4Zm4.182-4.745c5.455-5.455,9.609-7.491,10.909-7.491a.494.494,0,0,1,.355.1c.109.109.245,1.109-1.236,3.636a40.859,40.859,0,0,1-6.154,7.618,37.339,37.339,0,0,1-3.018,2.727l-3.636-3.636c.827-.945,1.736-1.955,2.745-2.955Zm-6.091,7.454,2.455,2.455c-2.6,1.573-3.636,1.473-3.8,1.345s-.227-1.2,1.345-3.8Z" transform="translate(0 0)" fill="#d9c3fc" stroke="#d5c5f8" stroke-width="1"/>
    <path id="パス_94" data-name="パス 94" d="M22.386,46.335a3.639,3.639,0,1,0-2.571-1.066,3.635,3.635,0,0,0,2.571,1.066Zm0-5.455A1.818,1.818,0,1,1,20.568,42.7a1.817,1.817,0,0,1,1.818-1.818Z" transform="translate(-5.227 -13.068)" fill="#d9c3fc" stroke="#d5c5f8" stroke-width="1"/>
    <path id="パス_95" data-name="パス 95" d="M19.773,56.761a3.639,3.639,0,1,0-1.066,2.571,3.635,3.635,0,0,0,1.066-2.571Zm-5.455,0a1.818,1.818,0,1,1,1.818,1.818,1.817,1.817,0,0,1-1.818-1.818Z" transform="translate(-2.613 -18.949)" fill="#d9c3fc" stroke="#d5c5f8" stroke-width="1"/>
    <path id="パス_96" data-name="パス 96" d="M22.386,68.75a3.639,3.639,0,1,0,2.571,1.066,3.635,3.635,0,0,0-2.571-1.066Zm0,5.454a1.816,1.816,0,1,1,1.286-.532,1.817,1.817,0,0,1-1.286.532Z" transform="translate(-5.227 -25.483)" fill="#d9c3fc" stroke="#d5c5f8" stroke-width="1"/>
    <path id="パス_97" data-name="パス 97" d="M38.011,75a3.639,3.639,0,1,0,2.571,1.066A3.635,3.635,0,0,0,38.011,75Zm0,5.455a1.816,1.816,0,1,1,1.286-.532,1.817,1.817,0,0,1-1.286.532Z" transform="translate(-11.761 -28.097)" fill="#d9c3fc" stroke="#d5c5f8" stroke-width="1"/>
    <path id="パス_98" data-name="パス 98" d="M53.636,68.75a3.639,3.639,0,1,0,2.571,1.066,3.635,3.635,0,0,0-2.571-1.066Zm0,5.454a1.816,1.816,0,1,1,1.286-.532,1.817,1.817,0,0,1-1.286.532Z" transform="translate(-18.296 -25.483)" fill="#d9c3fc" stroke="#d5c5f8" stroke-width="1"/>
    <path id="パス_99" data-name="パス 99" d="M35.938,32.812h1.818V34.63H35.938Z" transform="translate(-12.415 -10.455)" fill="#d9c3fc" stroke="#d5c5f8" stroke-width="1"/>
    <path id="パス_100" data-name="パス 100" d="M39.062,35.938H40.88v1.818H39.062Z" transform="translate(-13.721 -11.762)" fill="#d9c3fc" stroke="#d5c5f8" stroke-width="1"/>
    <path id="パス_101" data-name="パス 101" d="M32.812,35.938H34.63v1.818H32.812Z" transform="translate(-11.108 -11.762)" fill="#d9c3fc" stroke="#d5c5f8" stroke-width="1"/>
    <path id="パス_102" data-name="パス 102" d="M60.938,57.812h1.818V59.63H60.938Z" transform="translate(-22.87 -20.909)" fill="#d9c3fc" stroke="#d5c5f8" stroke-width="1"/>
    <path id="パス_103" data-name="パス 103" d="M64.062,60.938H65.88v1.818H64.062Z" transform="translate(-24.176 -22.217)" fill="#d9c3fc" stroke="#d5c5f8" stroke-width="1"/>
    <path id="パス_104" data-name="パス 104" d="M57.812,60.938H59.63v1.818H57.812Z" transform="translate(-21.562 -22.217)" fill="#d9c3fc" stroke="#d5c5f8" stroke-width="1"/>
  </g>
</svg>
