<svg xmlns="http://www.w3.org/2000/svg" width="19.6" height="19.6" viewBox="0 0 19.6 19.6">
  <g id="グループ_18" data-name="グループ 18" transform="translate(-2535.225)">
    <path id="パス_53" data-name="パス 53" d="M2587.255,1716.061a9.8,9.8,0,1,1,7.156,11.864,9.8,9.8,0,0,1-7.156-11.864" transform="translate(-51.74 -1708.615)" fill="#f2f2f2"/>
    <path id="パス_54" data-name="パス 54" d="M2610.971,1716.856h-7.59v1.5h8.072a9.772,9.772,0,0,0-.482-1.5m-1.937-3h-5.653v1.5h6.816a9.838,9.838,0,0,0-1.163-1.5m-14.2,13.505h14.154a9.75,9.75,0,0,0,1.18-1.5h-16.513a9.843,9.843,0,0,0,1.178,1.5m9.43-16.288c-.294-.073-.588-.131-.882-.176v1.459h3.853a9.779,9.779,0,0,0-2.97-1.283m7.419,8.785h-8.3v1.5h8.3a9.79,9.79,0,0,0,.005-1.5m-18.814,4.5h18.082a9.844,9.844,0,0,0,.469-1.424c.007-.026.012-.052.018-.078h-19.06a9.834,9.834,0,0,0,.491,1.5m6.687,5.733a9.855,9.855,0,0,0,1.736.269h1.247a9.8,9.8,0,0,0,4.612-1.5h-10.487a9.783,9.783,0,0,0,2.892,1.232" transform="translate(-56.884 -1710.783)" fill="#ff1507"/>
    <path id="パス_55" data-name="パス 55" d="M2597.5,1718.8l-.211-.154-.212.154.081-.249-.211-.154h.261l.081-.249.08.249h.262l-.211.154Zm-1.041-7.9.081.25-.212-.154-.212.154.081-.25-.212-.153h.261l.082-.25.081.25h.262Zm0,2.256.081.249-.212-.154-.212.154.081-.249-.212-.154h.261l.082-.249.081.249h.262Zm-.019,2.21.081.249-.212-.154-.211.154.081-.249-.212-.154h.262l.081-.248.081.248h.262Zm.062,2.433-.212-.155-.212.155.081-.249-.212-.154h.262l.081-.249.081.249h.262l-.212.154Zm-1.042-5.806.082.249-.211-.153-.213.153.081-.249-.212-.154h.262l.081-.248.08.248h.261Zm0,2.186.082.249-.211-.154-.213.154.081-.249-.212-.154h.262l.081-.249.08.249h.261Zm0,2.234.082.25-.211-.154-.213.154.081-.25-.212-.153h.262l.081-.25.08.25h.261Zm.082,2.383-.211-.154-.213.154.081-.249-.212-.154h.262l.081-.249.08.249h.261l-.211.154Zm-1.042-7.9.081.25-.212-.154-.212.154.081-.25-.211-.153h.261l.081-.25.081.25h.262Zm0,2.256.081.249-.212-.154-.212.154.081-.249-.211-.154h.261l.081-.249.081.249h.262Zm-.019,2.21.081.249-.212-.154-.211.154.081-.249-.212-.154h.262l.081-.248.081.248h.262Zm.061,2.433-.212-.155-.212.155.081-.249-.211-.154h.261l.081-.249.081.249h.261l-.212.154Zm-1.041-7.991.081.248-.211-.154-.212.154.081-.248-.211-.155h.262l.081-.249.081.249h.262Zm0,2.184.081.249-.211-.153-.212.153.081-.249-.211-.154h.262l.081-.248.081.248h.262Zm0,2.186.081.249-.211-.154-.212.154.081-.249-.211-.154h.262l.081-.249.081.249h.262Zm0,2.234.081.25-.211-.154-.212.154.081-.25-.211-.153h.262l.081-.25.081.25h.262Zm.081,2.383-.211-.154-.212.154.081-.249-.211-.154h.262l.081-.249.081.249h.262l-.212.154Zm-1.041-7.975.082.25-.213-.154-.211.154.081-.25-.212-.153h.261l.081-.249.081.249h.261Zm0,2.256.082.249-.213-.153-.211.153.081-.249-.212-.154h.261l.081-.249.081.249h.261Zm-.02,2.21.081.249-.212-.154-.213.154.081-.249-.211-.154h.261l.081-.249.08.249h.262Zm.062,2.435-.212-.154-.211.154.081-.25-.212-.153h.261l.081-.249.081.249h.262l-.211.153Zm-1.041-5.729.082.249-.212-.153-.213.153.081-.249-.211-.154h.261l.082-.248.08.248h.261Zm0,2.186.082.249-.212-.154-.213.154.081-.249-.211-.154h.261l.082-.249.08.249h.261Zm0,2.234.082.25-.212-.154-.213.154.081-.25-.211-.153h.261l.082-.25.08.25h.261Zm.082,2.383-.212-.154-.213.154.081-.249-.211-.154h.261l.082-.249.08.249h.261l-.212.154Zm-1.042-5.741.081.249-.211-.154-.212.154.082-.249-.212-.154h.262l.081-.248.081.248h.262Zm-.02,2.21.081.249-.211-.154-.212.154.081-.249-.211-.154h.261l.082-.249.08.249h.262Zm.061,2.433-.211-.154-.211.154.081-.249-.212-.154h.262l.081-.249.081.249h.261l-.212.154Zm4.625-8.045.081-.249.08.249h.261l-.211.155.082.248-.211-.154-.213.154.081-.248-.212-.155Zm1.959,6.606.081-.25.08.25h.262l-.211.153.081.25-.211-.154-.212.154.081-.25-.211-.153Zm0-2.236.081-.249.08.249h.262l-.211.154.081.249-.211-.154-.212.154.081-.249-.211-.154Zm0-2.186.081-.248.08.248h.262l-.211.154.081.249-.211-.153-.212.153.081-.249-.211-.154Zm0-2.185.081-.249.08.249h.262l-.211.155.081.248-.211-.154-.212.154.081-.248-.211-.155Zm-7.624,4.525.081.249-.212-.154-.211.154.081-.249-.212-.154h.261l.082-.249.081.249h.262Zm0,2.234.081.25-.212-.154-.211.154.081-.25-.212-.153h.261l.082-.25.081.25h.262Zm.081,2.383-.212-.154-.211.154.081-.249-.212-.154h.261l.081-.249.081.249h.262l-.212.154Zm-1.061-3.569.081.249-.212-.154-.211.154.081-.249-.212-.154h.262l.081-.248.081.248h.261Zm.062,2.433-.211-.154-.213.154.082-.249-.212-.154h.261l.082-.249.08.249h.262l-.212.154Zm-.96,1.136-.212-.154-.212.154.081-.249-.211-.154h.262l.081-.249.082.249h.261l-.211.154Zm10.538-9.912c-.1-.015-.811-.093-.907-.1l-1.761.065a9.823,9.823,0,0,0-4.948,2.095l.036.111-.092-.067a9.767,9.767,0,0,0-.921.856h.144l-.212.154.081.249-.212-.153-.085.061q-.3.341-.562.712h.029l-.062.045q-.064.091-.127.183l.057.175-.117-.084a9.784,9.784,0,0,0-1.326,3.036c0,.015-.007.029-.01.044h.163l.081-.25.082.25h.261l-.211.153.081.25-.212-.154-.212.154.081-.25-.126-.091a9.784,9.784,0,0,0-.233,3.037h11.24Z" transform="translate(-51.75 -1708.774)" fill="#0b1156"/>
  </g>
</svg>
