<svg xmlns="http://www.w3.org/2000/svg" width="70" height="70" viewBox="0 0 70 70">
  <path id="icons8-スカイプ" d="M19.994,0A19.891,19.891,0,0,0,0,19.731a19.424,19.424,0,0,0,2.494,9.494A33.013,33.013,0,0,0,35.35,68.338a34.149,34.149,0,0,0,5.644-.437A20.221,20.221,0,0,0,50.006,70,19.891,19.891,0,0,0,70,50.269a19.222,19.222,0,0,0-1.881-8.312,32.405,32.405,0,0,0,.7-6.606C68.819,17.155,53.8,2.362,35.35,2.362a34.655,34.655,0,0,0-5.206.394A20.043,20.043,0,0,0,19.994,0ZM35.131,13.125a25.57,25.57,0,0,1,7.481.963,16.54,16.54,0,0,1,5.294,2.581,11.552,11.552,0,0,1,3.15,3.456,7.618,7.618,0,0,1,1.006,3.631,4.245,4.245,0,0,1-1.356,3.019,4.414,4.414,0,0,1-3.281,1.356,4.1,4.1,0,0,1-2.756-.831,10.057,10.057,0,0,1-1.925-2.494A10.457,10.457,0,0,0,39.9,21.262c-1.077-.8-2.909-1.181-5.381-1.181a10.159,10.159,0,0,0-5.556,1.313,3.626,3.626,0,0,0-1.969,3.063,2.76,2.76,0,0,0,.656,1.837,5.584,5.584,0,0,0,1.881,1.4A14.4,14.4,0,0,0,32.112,28.7c.891.241,2.412.623,4.463,1.094,2.592.552,4.977,1.132,7.088,1.794a22.978,22.978,0,0,1,5.469,2.494,10.9,10.9,0,0,1,3.631,3.763A11.074,11.074,0,0,1,54.031,43.4,11.838,11.838,0,0,1,51.8,50.444a14.635,14.635,0,0,1-6.519,4.9A26.557,26.557,0,0,1,35.263,57.05,24.611,24.611,0,0,1,23.8,54.688a14.989,14.989,0,0,1-5.294-4.638,9.887,9.887,0,0,1-2.056-5.687,3.958,3.958,0,0,1,1.356-2.975,4.726,4.726,0,0,1,3.325-1.225,4.325,4.325,0,0,1,2.844.962,7.165,7.165,0,0,1,1.881,2.712,15.418,15.418,0,0,0,1.838,3.194,7.027,7.027,0,0,0,2.669,2.056,11.2,11.2,0,0,0,4.681.831,11.319,11.319,0,0,0,6.431-1.662,4.65,4.65,0,0,0,2.406-3.937A3.927,3.927,0,0,0,42.612,41.3,8.778,8.778,0,0,0,39.2,39.462c-1.46-.443-3.418-.935-5.862-1.444a47.875,47.875,0,0,1-8.4-2.494,13.934,13.934,0,0,1-5.512-3.981,9.694,9.694,0,0,1-2.1-6.3,10.248,10.248,0,0,1,2.187-6.431,13.471,13.471,0,0,1,6.213-4.244A27.514,27.514,0,0,1,35.131,13.125Z" fill="#fff"/>
</svg>
