<svg xmlns="http://www.w3.org/2000/svg" width="70" height="65.226" viewBox="0 0 70 65.226">
  <path id="np_registration_1681790_000000" d="M14.6,9a1.648,1.648,0,0,0-1.442,1.591v5.568H7.441A1.648,1.648,0,0,0,6,17.75V72.635A1.654,1.654,0,0,0,7.59,74.226H48.158a1.654,1.654,0,0,0,1.591-1.591V67.067h5.568a1.654,1.654,0,0,0,1.591-1.591V10.591A1.654,1.654,0,0,0,55.316,9H14.6ZM68.044,9A10.274,10.274,0,0,0,62.7,10.342a5.07,5.07,0,0,0-2.61,4.226V58.317a1.6,1.6,0,0,0,.149.646L66.6,73.281a1.592,1.592,0,0,0,2.883,0l6.363-14.318A1.6,1.6,0,0,0,76,58.317c0-14.557,0-29.173,0-43.749a5.07,5.07,0,0,0-2.61-4.226A10.274,10.274,0,0,0,68.044,9Zm-51.7,3.182H53.726v51.7H16.341C16.344,46.656,16.341,29.377,16.341,12.182Zm51.7,0a7.356,7.356,0,0,1,3.679.87c.83.507,1.094.991,1.094,1.516v2.386H63.271V14.568c0-.525.264-1.01,1.094-1.516A7.356,7.356,0,0,1,68.044,12.182ZM9.182,19.341h3.977V65.476a1.654,1.654,0,0,0,1.591,1.591H46.567v3.977H9.182Zm14.168,0a1.593,1.593,0,1,0,.149,3.182h5.568a1.591,1.591,0,1,0,0-3.182H23.35Zm12.727,0a1.593,1.593,0,1,0,.149,3.182H48.158a1.591,1.591,0,1,0,0-3.182H36.076Zm27.194.8h9.545v3.182H63.271ZM23.35,25.7a1.593,1.593,0,1,0,.149,3.182h5.568a1.591,1.591,0,1,0,0-3.182H23.35Zm12.727,0a1.593,1.593,0,1,0,.149,3.182H48.158a1.591,1.591,0,1,0,0-3.182H36.076Zm27.194.8h9.545V55.135H63.271ZM23.35,39.226a1.593,1.593,0,1,0,.149,3.182h5.568a1.591,1.591,0,1,0,0-3.182H23.35Zm12.727,0a1.593,1.593,0,1,0,.149,3.182H48.158a1.591,1.591,0,1,0,0-3.182H36.077ZM23.35,45.59a1.593,1.593,0,0,0,.149,3.182h5.568a1.591,1.591,0,1,0,0-3.182H23.35Zm12.727,0a1.593,1.593,0,1,0,.149,3.182H48.158a1.591,1.591,0,1,0,0-3.182H36.077ZM63.4,58.317h9.3l-4.648,10.44Z" transform="translate(-5.999 -9)" fill="#fff"/>
</svg>
