<svg xmlns="http://www.w3.org/2000/svg" width="70.516" height="41.21" viewBox="0 0 70.516 41.21">
  <g id="np_reservation_1241114_000000" transform="translate(-3.519 -22.807)">
    <path id="パス_164" data-name="パス 164" d="M64.174,46.051H32.014a2.275,2.275,0,0,0,0,4.551h32.16a2.275,2.275,0,1,0,0-4.551Z" transform="translate(-6.334 -5.615)" fill="#fff"/>
    <path id="パス_165" data-name="パス 165" d="M73.963,57.842,68.654,24.728a2.274,2.274,0,0,0-2.275-1.92H11.142a2.276,2.276,0,0,0-2.32,1.875L3.6,54.939a5.305,5.305,0,0,0,5.232,6.21h6.145a5.307,5.307,0,0,0,4.708,2.868H68.722a5.309,5.309,0,0,0,5.241-6.174ZM8.245,56.325a.755.755,0,0,1-.166-.613l3-17.278,2.9,18.2H8.822a.759.759,0,0,1-.578-.311ZM69.3,59.2a.762.762,0,0,1-.578.267H19.681a.764.764,0,0,1-.758-.637l-5-31.437H64.492L69.466,58.6a.755.755,0,0,1-.166.6Z" transform="translate(0)" fill="#fff"/>
  </g>
</svg>
