<svg xmlns="http://www.w3.org/2000/svg" width="66.19" height="79.105" viewBox="0 0 66.19 79.105">
  <g id="np_teacher_2354732_000000" transform="translate(-14.063 -7.687)">
    <path id="パス_38" data-name="パス 38" d="M47.985,50.489A22.9,22.9,0,1,1,70.814,27.516,22.887,22.887,0,0,1,47.985,50.489Zm0-42.93a20.029,20.029,0,1,0,19.958,20.1,20.038,20.038,0,0,0-19.958-20.1Z" transform="translate(-0.9 3)" fill="#fff"/>
    <path id="パス_39" data-name="パス 39" d="M78.673,92.548H15.5a1.356,1.356,0,0,1-1.436-1.436,30.335,30.335,0,0,1,17.229-27.28,27.211,27.211,0,0,1,8.184-2.584,1.381,1.381,0,0,1,.431,2.728,25.61,25.61,0,0,0-7.323,2.3A27.556,27.556,0,0,0,17.078,89.532h60.16a26.806,26.806,0,0,0-7.9-17.8,25.9,25.9,0,0,0-7.61-5.312,27.1,27.1,0,0,0-7.323-2.3,1.381,1.381,0,0,1,.431-2.728,28.549,28.549,0,0,1,8.184,2.584,28.3,28.3,0,0,1,8.328,5.887,29.767,29.767,0,0,1,8.9,21.25,1.687,1.687,0,0,1-1.579,1.436Z" transform="translate(0 -5.756)" fill="#fff"/>
    <path id="パス_40" data-name="パス 40" d="M39.662,30.887a5.607,5.607,0,0,1-5.6-5.6,5.6,5.6,0,0,1,11.2,0A5.606,5.606,0,0,1,39.662,30.887Zm0-8.328a2.726,2.726,0,0,0-2.728,2.728,2.728,2.728,0,0,0,5.456,0A2.726,2.726,0,0,0,39.662,22.559Z" transform="translate(-1.622 1.784)" fill="#fff"/>
    <path id="パス_41" data-name="パス 41" d="M59.35,30.887a5.607,5.607,0,0,1-5.6-5.6,5.6,5.6,0,1,1,5.6,5.6Zm0-8.328a2.726,2.726,0,0,0-2.728,2.728,2.728,2.728,0,1,0,2.728-2.728Z" transform="translate(-3.219 1.784)" fill="#fff"/>
    <path id="パス_42" data-name="パス 42" d="M54.311,27.091H44.4a1.436,1.436,0,1,1,0-2.872h9.907a1.436,1.436,0,1,1,0,2.872Z" transform="translate(-2.344 1.416)" fill="#fff"/>
    <path id="パス_43" data-name="パス 43" d="M43.649,76.9a1.3,1.3,0,0,1-1.005-.431L32.306,66.128a2,2,0,0,1-.431-1.292,1.518,1.518,0,0,1,.861-1.005,27.211,27.211,0,0,1,8.184-2.584c.431-.144.861.144,1.292.431l7.466,7.466a1.3,1.3,0,0,1,.431,1.005v.574a1.3,1.3,0,0,1-.431,1.005L44.8,76.609a3.379,3.379,0,0,1-1.149.287Zm-7.9-11.343,7.9,7.9,3.015-3.015L40.49,64.261a29.069,29.069,0,0,0-4.738,1.292Z" transform="translate(-1.445 -5.755)" fill="#fff"/>
    <path id="パス_44" data-name="パス 44" d="M49.848,72.821a1.3,1.3,0,0,1-1.005-.431l-.287-.287a1.388,1.388,0,0,1,0-2.01l.287-.287a1.388,1.388,0,0,1,2.01,0l.287.287a1.388,1.388,0,0,1,0,2.01l-.287.287a1.3,1.3,0,0,1-1.005.431Z" transform="translate(-2.762 -6.417)" fill="#fff"/>
    <path id="パス_45" data-name="パス 45" d="M54.754,76.9a1.3,1.3,0,0,1-1.005-.431l-4.882-4.882a1.023,1.023,0,0,1-.431-.861v-.574a1.3,1.3,0,0,1,.431-1.005l7.466-7.466a1.755,1.755,0,0,1,1.292-.431,28.549,28.549,0,0,1,8.184,2.584,1.518,1.518,0,0,1,.861,1.005,1.228,1.228,0,0,1-.431,1.292L55.9,76.469a2.291,2.291,0,0,1-1.149.431Zm-3.015-6.461,3.015,3.015,7.9-7.9a29.059,29.059,0,0,0-4.738-1.292Z" transform="translate(-2.788 -5.758)" fill="#fff"/>
    <path id="パス_46" data-name="パス 46" d="M49.848,72.821a1.3,1.3,0,0,1-1.005-.431l-.287-.287a1.388,1.388,0,0,1,0-2.01l.287-.287a1.388,1.388,0,0,1,2.01,0l.287.287a1.388,1.388,0,0,1,0,2.01l-.287.287a1.3,1.3,0,0,1-1.005.431Z" transform="translate(-2.762 -6.417)" fill="#fff"/>
    <path id="パス_47" data-name="パス 47" d="M56.413,93.247H42.055a1.63,1.63,0,0,1-1.149-.431,1.117,1.117,0,0,1-.287-1.149l2.3-15.65a1.241,1.241,0,0,1,.431-.861l4.882-4.882a1.388,1.388,0,0,1,2.01,0l4.882,4.882a1.023,1.023,0,0,1,.431.861l2.3,15.506a1.547,1.547,0,0,1-.287,1.149,1.772,1.772,0,0,1-1.149.574ZM43.778,90.375H54.834l-2.01-13.5-3.589-3.446-3.446,3.446Z" transform="translate(-2.149 -6.455)" fill="#fff"/>
  </g>
</svg>
