<svg xmlns="http://www.w3.org/2000/svg" width="67.121" height="56.521" viewBox="0 0 67.121 56.521">
  <g id="np_selection_3777015_000000" transform="translate(-2.501 -9.899)">
    <path id="パス_34" data-name="パス 34" d="M46.068,21.417A6.686,6.686,0,0,1,50.8,23.4a6.3,6.3,0,0,1,1.695,2.9,9.466,9.466,0,1,0-12.855,0,6.823,6.823,0,0,1,6.428-4.877Z" transform="translate(-10.007 -0.001)" fill="#fff"/>
    <path id="パス_35" data-name="パス 35" d="M21.436,19.368A9.468,9.468,0,1,1,11.967,9.9a9.468,9.468,0,0,1,9.469,9.469" transform="translate(0)" fill="#fff"/>
    <path id="パス_36" data-name="パス 36" d="M89.635,19.368A9.468,9.468,0,1,1,80.169,9.9a9.468,9.468,0,0,1,9.466,9.469" transform="translate(-20.013)" fill="#fff"/>
    <path id="パス_37" data-name="パス 37" d="M63.09,47.655a3.327,3.327,0,0,0-2.826,1.554v-.072a3.393,3.393,0,0,0-3.392-3.392A3.327,3.327,0,0,0,54.045,47.3v-.072a3.393,3.393,0,0,0-3.392-3.392,3.327,3.327,0,0,0-2.826,1.554v-11.3a3.391,3.391,0,1,0-6.781,0V56.131a.479.479,0,0,1-.282.425.413.413,0,0,1-.494-.072l-3.392-3.392a3.424,3.424,0,0,0-4.311-.425A3.649,3.649,0,0,0,31.082,55a3.458,3.458,0,0,0,.778,2.685l8.479,10.245a12.612,12.612,0,0,0,9.751,4.593h5.3a11.1,11.1,0,0,0,11.1-11.1V50.9a3.368,3.368,0,0,0-3.395-3.246Z" transform="translate(-8.377 -6.103)" fill="#fff"/>
  </g>
</svg>
