<svg xmlns="http://www.w3.org/2000/svg" width="80.001" height="80" viewBox="0 0 80.001 80">
  <g id="np_lesson_1766585_000000" transform="translate(-2 -2)">
    <path id="パス_28" data-name="パス 28" d="M43.667,5.333V2H40.333V5.333H2V8.667H5.333V52H2v3.333H34.451L23.667,79.985V82H27V80.682L38.091,55.333h2.243V82h3.333V55.333H45.91L57,80.682V82h3.333V79.985L49.55,55.333H82V52H78.667V8.667H82V5.333ZM75.333,52H8.667V8.667H75.333Z" fill="#fff"/>
    <path id="パス_29" data-name="パス 29" d="M29.333,50.667A13.351,13.351,0,0,0,42.667,37.333V35.667H31V24H29.333a13.333,13.333,0,1,0,0,26.667Zm-1.667-23.2V39H39.2a10,10,0,1,1-11.53-11.53Z" transform="translate(-2.333 -3.667)" fill="#fff"/>
    <path id="パス_30" data-name="パス 30" d="M53,29.333A13.351,13.351,0,0,0,39.667,16H38V31H53ZM41.333,27.667v-8.2a10.028,10.028,0,0,1,8.2,8.2Z" transform="translate(-6 -2.333)" fill="#fff"/>
    <path id="パス_31" data-name="パス 31" d="M62,20H78.667v3.333H62Z" transform="translate(-10 -3)" fill="#fff"/>
    <path id="パス_32" data-name="パス 32" d="M62,30H78.667v3.333H62Z" transform="translate(-10 -4.667)" fill="#fff"/>
    <path id="パス_33" data-name="パス 33" d="M62,40H78.667v3.333H62Z" transform="translate(-10 -6.333)" fill="#fff"/>
  </g>
</svg>
