<svg xmlns="http://www.w3.org/2000/svg" width="58.516" height="58.518" viewBox="0 0 58.516 58.518">
  <g id="np_purchase_1560995_000000" transform="translate(-2 -2)">
    <path id="パス_24" data-name="パス 24" d="M4.438,6.877H9.924l9.234,32.369a2.444,2.444,0,0,0,2.348,1.767H50.764a2.436,2.436,0,0,0,2.31-1.664L60.389,17.4a2.439,2.439,0,1,0-4.626-1.548L49.01,36.136H23.334L14.094,3.767A2.438,2.438,0,0,0,11.753,2H4.438a2.438,2.438,0,0,0,0,4.876Z" transform="translate(0 0)" fill="#fff"/>
    <path id="パス_25" data-name="パス 25" d="M30,81.315A7.315,7.315,0,1,0,37.314,74,7.311,7.311,0,0,0,30,81.315Zm9.753,0a2.439,2.439,0,1,1-.714-1.724,2.436,2.436,0,0,1,.714,1.724Z" transform="translate(-10.932 -28.112)" fill="#fff"/>
    <path id="パス_26" data-name="パス 26" d="M69.314,74a7.315,7.315,0,1,0,7.315,7.315A7.311,7.311,0,0,0,69.314,74Zm0,9.753a2.439,2.439,0,1,1,1.724-.714,2.436,2.436,0,0,1-1.724.714Z" transform="translate(-23.426 -28.112)" fill="#fff"/>
    <path id="パス_27" data-name="パス 27" d="M51.752,2a2.437,2.437,0,0,0-2.438,2.438V22.932L46.161,19.78v0a2.438,2.438,0,1,0-3.448,3.448l7.315,7.315a2.432,2.432,0,0,0,3.448,0L60.79,23.23a2.438,2.438,0,1,0-3.448-3.448l-3.153,3.15V4.438A2.439,2.439,0,0,0,51.752,2Z" transform="translate(-15.617)" fill="#fff"/>
  </g>
</svg>
