<svg xmlns="http://www.w3.org/2000/svg" width="100.015" height="81.875" viewBox="0 0 100.015 81.875">
  <g id="Group_216" data-name="Group 216" transform="translate(0 -9.063)">
    <path id="Path_156" data-name="Path 156" d="M91.957,90.938H8.059A8.055,8.055,0,0,1,0,82.879V17.121A8.055,8.055,0,0,1,8.059,9.063h83.9a8.055,8.055,0,0,1,8.059,8.059V82.879a8.055,8.055,0,0,1-8.059,8.059ZM8.059,15.344a1.779,1.779,0,0,0-1.777,1.777V82.879a1.779,1.779,0,0,0,1.777,1.777h83.9a1.775,1.775,0,0,0,1.762-1.777V17.121a1.775,1.775,0,0,0-1.762-1.777Z" fill="#fff"/>
    <path id="Path_157" data-name="Path 157" d="M18.973,77.32H81.028a2.656,2.656,0,0,0,2.215-4.227L74.684,61.472a2.656,2.656,0,0,0-4.008-.344L61.88,69.5,41.462,41.777h0A2.656,2.656,0,0,0,37.1,41.9L16.68,73.218v0a2.653,2.653,0,0,0,2.293,4.1Z" fill="#fff"/>
    <path id="Path_158" data-name="Path 158" d="M78.625,32.809A9.314,9.314,0,1,1,69.309,23.5a9.317,9.317,0,0,1,9.316,9.313" fill="#fff"/>
  </g>
</svg>
