<svg xmlns="http://www.w3.org/2000/svg" width="90.398" height="96.037" viewBox="0 0 90.398 96.037">
  <g id="np_user_3834353_000000" transform="translate(-4.801 -2)">
    <path id="パス_151" data-name="パス 151" d="M74.8,26.8A24.8,24.8,0,1,1,50,2,24.8,24.8,0,0,1,74.8,26.8" fill="#fff"/>
    <path id="パス_152" data-name="パス 152" d="M74.2,51.9A35.043,35.043,0,0,1,50,61.7a34.6,34.6,0,0,1-24.2-9.8c-11.7,6.4-21,16.7-21,28.4C4.8,99.7,15.5,98,50,98c32.9,0,45.2,1.7,45.2-17.7,0-11.7-9.4-22-21-28.4Z" fill="#fff"/>
  </g>
</svg>
