<svg xmlns="http://www.w3.org/2000/svg" width="18.599" height="30" viewBox="0 0 18.599 30">
  <g id="np_ladies-sign_956819_000000" transform="translate(-19.004)">
    <path id="パス_159" data-name="パス 159" d="M46,3a3,3,0,1,1-3-3,3,3,0,0,1,3,3" transform="translate(-14.698)" fill="#d9c3fc"/>
    <path id="パス_160" data-name="パス 160" d="M37.417,30.122,34.3,24.6a2.5,2.5,0,0,0-2.17-1.27H24.473a2.5,2.5,0,0,0-2.17,1.275l-3.106,5.5h0A1.5,1.5,0,1,0,21.8,31.583l2.8-5.25h.911l-4.66,9.785a.5.5,0,0,0,.45.715h3.5v8a1.5,1.5,0,1,0,3,0v-8h1v8a1.5,1.5,0,1,0,3,0v-8h3.5a.5.5,0,0,0,.45-.715l-4.659-9.785H32l2.8,5.26a1.5,1.5,0,0,0,2.614-1.471Z" transform="translate(0 -16.333)" fill="#d9c3fc"/>
  </g>
</svg>
