<svg xmlns="http://www.w3.org/2000/svg" width="15" height="14.999" viewBox="0 0 15 14.999">
  <path id="np_edit_3844365_000000" d="M27.5,19.25V25A2.5,2.5,0,0,1,25,27.5H15A2.5,2.5,0,0,1,12.5,25V15A2.5,2.5,0,0,1,15,12.5h5.75a.625.625,0,0,1,0,1.25H15A1.25,1.25,0,0,0,13.75,15V25A1.251,1.251,0,0,0,15,26.249H25A1.251,1.251,0,0,0,26.249,25V19.25a.625.625,0,1,1,1.25,0Zm-1.875-3.162.881.881.506-.506a1.65,1.65,0,0,0,0-2.344l-1.131-1.131a1.687,1.687,0,0,0-2.344,0l-.506.506Zm-8.25,4.144.037,1.744a.624.624,0,0,0,.625.625l1.744.038h.05a2.5,2.5,0,0,0,1.756-.762l4.037-4.019-3.481-3.481-4.019,4.037a2.537,2.537,0,0,0-.75,1.819Z" transform="translate(-12.5 -12.5)"/>
</svg>
