<svg xmlns="http://www.w3.org/2000/svg" width="20.403" height="30" viewBox="0 0 20.403 30">
  <g id="np_men_992082_000000" transform="translate(-19.399 -5)">
    <path id="パス_161" data-name="パス 161" d="M39.4,29.252l-5.4-5.634a2.275,2.275,0,0,0-1.609-.689H26.87a1.968,1.968,0,0,0-1.552.689L19.8,29.252a1.953,1.953,0,0,0-.4,1.035,1.318,1.318,0,0,0,.46.977,1.458,1.458,0,0,0,.978.344,1.044,1.044,0,0,0,.918-.458l4.253-4.368v5.576h7.3V26.839l4.2,4.311a1.111,1.111,0,0,0,.918.458,1.563,1.563,0,0,0,.977-.344,1.257,1.257,0,0,0,.4-.977,1.577,1.577,0,0,0-.406-1.035Z" transform="translate(0 -11.953)" fill="#96c4fc"/>
    <path id="パス_162" data-name="パス 162" d="M45.086,10.4a2.35,2.35,0,0,0,1.839-.746,2.777,2.777,0,0,0,0-3.908A2.343,2.343,0,0,0,45.086,5a2.425,2.425,0,0,0-1.839.747A2.782,2.782,0,0,0,42.5,7.7a2.781,2.781,0,0,0,.747,1.953,2.426,2.426,0,0,0,1.839.746Z" transform="translate(-15.401)" fill="#96c4fc"/>
    <path id="パス_163" data-name="パス 163" d="M39.395,64.373a1.514,1.514,0,0,0,.4,1.09,1.394,1.394,0,0,0,2.069,0,1.571,1.571,0,0,0,.461-1.09V51.67h1.2v12.7a1.811,1.811,0,0,0,.4,1.09,1.447,1.447,0,0,0,1.036.46,1.677,1.677,0,0,0,1.091-.46,1.558,1.558,0,0,0,.46-1.09V51.383H39.395Z" transform="translate(-13.331 -30.922)" fill="#96c4fc"/>
  </g>
</svg>
