<svg xmlns="http://www.w3.org/2000/svg" xmlns:xlink="http://www.w3.org/1999/xlink" width="36.272" height="35.745" viewBox="0 0 36.272 35.745">
  <defs>
    <linearGradient id="linear-gradient" x1="0.5" x2="0.5" y2="1" gradientUnits="objectBoundingBox">
      <stop offset="0" stop-color="#d9c3fc"/>
      <stop offset="1" stop-color="#95c4fc"/>
    </linearGradient>
  </defs>
  <g id="np_search_3872709_000000" transform="translate(-16.402 -16.883)">
    <path id="パス_153" data-name="パス 153" d="M30.434,16.883A14.038,14.038,0,1,0,44.478,30.927,14.056,14.056,0,0,0,30.434,16.883Zm0,2.526A11.513,11.513,0,1,1,18.926,30.927,11.506,11.506,0,0,1,30.434,19.409Z" fill="url(#linear-gradient)"/>
    <path id="パス_154" data-name="パス 154" d="M58.436,56.81a1.264,1.264,0,0,0-.748,2.163L69.32,70.605a1.265,1.265,0,1,0,1.78-1.793L59.468,57.181v0a1.258,1.258,0,0,0-1.032-.373Z" transform="translate(-18.845 -18.393)" fill="url(#linear-gradient)"/>
    <path id="パス_155" data-name="パス 155" d="M31.791,26.734a1.255,1.255,0,0,0-.558.15,10.6,10.6,0,0,0-4.2,3.969v0a1.264,1.264,0,1,0,2.163,1.3,8.057,8.057,0,0,1,3.2-3.023,1.264,1.264,0,0,0-.6-2.389Z" transform="translate(-4.79 -4.539)" fill="url(#linear-gradient)"/>
  </g>
</svg>
