<svg xmlns="http://www.w3.org/2000/svg" width="24" height="24" viewBox="0 0 24 24">
  <g id="mood_bad" transform="translate(-542 -4098)">
    <rect id="Path" width="24" height="24" transform="translate(542 4098)" fill="none"/>
    <path id="Icon" d="M553.99,4120a10,10,0,1,1,10-10A10.011,10.011,0,0,1,553.99,4120Zm.01-18a8,8,0,1,0,8,8A8.009,8.009,0,0,0,554,4102Zm5.11,13H548.89a5.517,5.517,0,0,1,1.981-2.515,5.462,5.462,0,0,1,6.258,0A5.519,5.519,0,0,1,559.11,4115Zm-1.61-6a1.5,1.5,0,1,1,1.5-1.5A1.5,1.5,0,0,1,557.5,4109Zm-7,0a1.5,1.5,0,1,1,1.5-1.5A1.5,1.5,0,0,1,550.5,4109Z" fill="#fff"/>
  </g>
</svg>
