<svg xmlns="http://www.w3.org/2000/svg" width="19.594" height="22" viewBox="0 0 19.594 22">
  <path id="np_login_624889_000000" d="M22.758,5a.734.734,0,0,0,.076,1.467h5.133V25.53H22.834a.733.733,0,1,0,0,1.467H28.7a.734.734,0,0,0,.733-.733V5.731A.734.734,0,0,0,28.7,5H22.758ZM17.907,9.879a.733.733,0,0,0-.458,1.276l4.476,4.109H10.536a.734.734,0,0,0,.076,1.467H21.925l-4.476,4.1a.733.733,0,1,0,.993,1.077l5.866-5.378a.733.733,0,0,0,0-1.077l-5.866-5.378a.734.734,0,0,0-.535-.2Z" transform="translate(-9.84 -4.997)" fill="#ffff70"/>
</svg>
