<svg xmlns="http://www.w3.org/2000/svg" width="24" height="24" viewBox="0 0 24 24">
  <g id="notifications_none" transform="translate(-440 -4098)">
    <rect id="Path" width="24" height="24" transform="translate(440 4098)" fill="none"/>
    <path id="Icon" d="M452,4120a2,2,0,0,1-2-2h4A2,2,0,0,1,452,4120Zm8-3H444v-1l2-2v-5a7.087,7.087,0,0,1,1.177-4.06,5.528,5.528,0,0,1,3.322-2.261V4102a1.5,1.5,0,1,1,3,0v.679a5.52,5.52,0,0,1,3.326,2.265A7.094,7.094,0,0,1,458,4109v5l2,2v1Zm-8-12.5a3.715,3.715,0,0,0-2.933,1.32A4.91,4.91,0,0,0,448,4109v6h8v-6a4.909,4.909,0,0,0-1.067-3.181A3.716,3.716,0,0,0,452,4104.5Z" fill="#fff"/>
  </g>
</svg>
