<svg xmlns="http://www.w3.org/2000/svg" width="24" height="24" viewBox="0 0 24 24">
  <g id="brightness_low" transform="translate(-746 -1748)">
    <rect id="Path" width="24" height="24" transform="translate(746 1748)" fill="none"/>
    <path id="Icon" d="M758,1771.31h0L754.69,1768H750v-4.69l-3.31-3.31,3.31-3.309V1752h4.69l3.31-3.309,3.31,3.309H766v4.691l3.31,3.309-3.31,3.31V1768h-4.69L758,1771.309ZM755.52,1766l2.479,2.479,2.48-2.479H764v-3.52l2.479-2.48L764,1757.52V1754h-3.52l-2.48-2.48L755.52,1754H752v3.52L749.52,1760l2.48,2.48V1766Zm2.479,0a6,6,0,1,1,6-6A6.006,6.006,0,0,1,758,1766Zm0-10a4,4,0,1,0,4,4A4,4,0,0,0,758,1756Z" fill="#fff"/>
  </g>
</svg>
