<svg xmlns="http://www.w3.org/2000/svg" width="29.057" height="26.823" viewBox="0 0 29.057 26.823">
  <g id="np_time_6732_000000" transform="translate(0 -3.844)">
    <path id="パス_143" data-name="パス 143" d="M15.936,3.849a.753.753,0,0,0-.087-.006,1.324,1.324,0,0,0-1.308,1.4c0,.762.3,1.38,1.459,1.4v0a10.615,10.615,0,0,1-.276,21.227,10.54,10.54,0,0,1-10.6-9.722H7.582l-3.792-6.3L0,18.15H2.324a13.382,13.382,0,1,0,13.611-14.3Z" transform="translate(0 0)"/>
    <path id="パス_144" data-name="パス 144" d="M52.062,73.266a.84.84,0,1,1-.84.84A.84.84,0,0,1,52.062,73.266Z" transform="translate(-36.339 -49.25)"/>
    <path id="パス_145" data-name="パス 145" d="M71.157,29.609a.839.839,0,1,1-.837.84A.839.839,0,0,1,71.157,29.609Z" transform="translate(-49.887 -18.279)"/>
    <path id="パス_146" data-name="パス 146" d="M71.157,64.258a.84.84,0,1,1-.837.84A.84.84,0,0,1,71.157,64.258Z" transform="translate(-49.887 -42.86)"/>
    <path id="パス_147" data-name="パス 147" d="M77.579,47.258a.839.839,0,1,1-.837.839A.838.838,0,0,1,77.579,47.258Z" transform="translate(-54.443 -30.799)"/>
    <path id="パス_148" data-name="パス 148" d="M43.359,23.3a1.215,1.215,0,0,0-1.185-1.224h-.257A1.2,1.2,0,0,0,40.744,23.3v7.033L37.3,33.773a1.324,1.324,0,0,0,0,1.839,1.29,1.29,0,0,0,1.836,0l3.807-3.807c.03-.032.052-.064.082-.093a1.2,1.2,0,0,0,.337-.834Z" transform="translate(-26.198 -12.936)"/>
  </g>
</svg>
