<svg xmlns="http://www.w3.org/2000/svg" width="24.713" height="24" viewBox="0 0 24.713 24">
  <path id="np_video-camera_3844635_000000" d="M36.493,22.738a1.024,1.024,0,0,0-1.05.046l-4.655,3.061V24.694a3.067,3.067,0,0,0-1.447-2.6,5.117,5.117,0,1,0-7.788-6.6,5.117,5.117,0,1,0-7.788,6.6,3.063,3.063,0,0,0-1.446,2.6V34.34a3.074,3.074,0,0,0,3.074,3.074H27.715a3.075,3.075,0,0,0,3.074-3.074V33.188l4.655,3.061h0a1.025,1.025,0,0,0,1.588-.857V23.64a1.023,1.023,0,0,0-.538-.9Zm-10.834-7.28a3.081,3.081,0,1,1-3.079,3.081,3.081,3.081,0,0,1,3.079-3.081ZM21.583,21.62h-.059c.009-.013.02-.023.029-.036Zm-4.135-6.161a3.081,3.081,0,1,1-3.079,3.081,3.08,3.08,0,0,1,3.079-3.081ZM28.74,34.34a1.028,1.028,0,0,1-1.025,1.025H15.393a1.025,1.025,0,0,1-1.025-1.025V24.694a1.024,1.024,0,0,1,1.025-1.025H27.715a1.026,1.026,0,0,1,1.025,1.025Zm6.243-.845L30.789,30.74V28.3l4.194-2.758Z" transform="translate(-12.318 -13.414)"/>
</svg>
