<svg xmlns="http://www.w3.org/2000/svg" width="29.4" height="24.979" viewBox="0 0 29.4 24.979">
  <path id="np_read_3843863_000000" d="M38.184,17.383c-6.2-3.369-12.3-1.085-14.111-.26-1.809-.825-7.915-3.109-14.111.26a1.129,1.129,0,0,0-.588.984V39.351a1.119,1.119,0,0,0,1.685.972c6.094-3.324,12.437,0,12.437,0h.136a1.539,1.539,0,0,0,.441.158h.158l.226-.057h.1c.068,0,6.4-3.324,12.494,0a1.155,1.155,0,0,0,1.719-1.074V18.366a1.129,1.129,0,0,0-.588-.984ZM11.636,37.576V19.067a14.181,14.181,0,0,1,11.306,0V37.644a16.173,16.173,0,0,0-11.306-.068Zm24.874,0a16.173,16.173,0,0,0-11.306.068V19.09a14.228,14.228,0,0,1,11.306,0ZM33.277,20.288a1.142,1.142,0,0,1-.317,2.261,13.285,13.285,0,0,0-4.172.079H28.6a1.135,1.135,0,0,1-.192-2.261,15.7,15.7,0,0,1,4.873-.079Zm.972,4.669a1.131,1.131,0,0,1-1.278.961A13.285,13.285,0,0,0,28.8,26h-.2a1.135,1.135,0,1,1-.192-2.261,15.7,15.7,0,0,1,4.873-.079,1.129,1.129,0,0,1,.972,1.3Zm0,3.392a1.131,1.131,0,0,1-1.278.961,13.284,13.284,0,0,0-4.172.079h-.2a1.135,1.135,0,1,1-.192-2.261,15.7,15.7,0,0,1,4.873-.079,1.129,1.129,0,0,1,.972,1.3ZM13.9,21.566a1.131,1.131,0,0,1,.961-1.278,15.7,15.7,0,0,1,4.873.079,1.135,1.135,0,0,1-.192,2.261h-.192a13.285,13.285,0,0,0-4.172-.079,1.132,1.132,0,0,1-1.278-.984Zm6.784,3.505a1.13,1.13,0,0,1-1.131.938h-.192a13.284,13.284,0,0,0-4.172-.079,1.142,1.142,0,0,1-.317-2.261,15.7,15.7,0,0,1,4.873.079,1.131,1.131,0,0,1,.938,1.323Zm0,3.392a1.13,1.13,0,0,1-1.131.938h-.192a13.284,13.284,0,0,0-4.172-.079,1.142,1.142,0,0,1-.317-2.261,15.7,15.7,0,0,1,4.873.079,1.131,1.131,0,0,1,.938,1.323Z" transform="translate(-9.375 -15.598)"/>
</svg>
